<mxfile host="app.diagrams.net" agent="Mozilla/5.0 (Windows NT 10.0; Win64; x64) AppleWebKit/537.36 (KHTML, like Gecko) Chrome/136.0.0.0 Safari/537.36" version="27.1.1">
  <diagram name="Page-1" id="2YBvvXClWsGukQMizWep">
    <mxGraphModel dx="1716" dy="691" grid="0" gridSize="10" guides="1" tooltips="1" connect="1" arrows="1" fold="1" page="1" pageScale="1" pageWidth="850" pageHeight="1100" math="0" shadow="0">
      <root>
        <mxCell id="0" />
        <mxCell id="1" parent="0" />
        <mxCell id="zcN_CrmE4YtSsB2iH1Vm-2" value="" style="shape=umlLifeline;perimeter=lifelinePerimeter;whiteSpace=wrap;html=1;container=1;dropTarget=0;collapsible=0;recursiveResize=0;outlineConnect=0;portConstraint=eastwest;newEdgeStyle={&quot;curved&quot;:0,&quot;rounded&quot;:0};participant=umlActor;" parent="1" vertex="1">
          <mxGeometry x="110" y="52" width="20" height="598" as="geometry" />
        </mxCell>
        <mxCell id="zcN_CrmE4YtSsB2iH1Vm-3" value="Manager" style="text;align=center;fontStyle=1;verticalAlign=middle;spacingLeft=3;spacingRight=3;strokeColor=none;rotatable=0;points=[[0,0.5],[1,0.5]];portConstraint=eastwest;html=1;" parent="1" vertex="1">
          <mxGeometry x="80" y="26" width="80" height="26" as="geometry" />
        </mxCell>
        <mxCell id="zcN_CrmE4YtSsB2iH1Vm-13" value="Mngr_Home_Scr" style="shape=umlLifeline;perimeter=lifelinePerimeter;whiteSpace=wrap;html=1;container=1;dropTarget=0;collapsible=0;recursiveResize=0;outlineConnect=0;portConstraint=eastwest;newEdgeStyle={&quot;curved&quot;:0,&quot;rounded&quot;:0};size=28;" parent="1" vertex="1">
          <mxGeometry x="180" y="52" width="120" height="598" as="geometry" />
        </mxCell>
        <mxCell id="wRlIKdgkcguiMKA2kObz-1" value="" style="html=1;points=[[0,0,0,0,5],[0,1,0,0,-5],[1,0,0,0,5],[1,1,0,0,-5]];perimeter=orthogonalPerimeter;outlineConnect=0;targetShapes=umlLifeline;portConstraint=eastwest;newEdgeStyle={&quot;curved&quot;:0,&quot;rounded&quot;:0};" parent="zcN_CrmE4YtSsB2iH1Vm-13" vertex="1">
          <mxGeometry x="55" y="38" width="10" height="102" as="geometry" />
        </mxCell>
        <mxCell id="zcN_CrmE4YtSsB2iH1Vm-15" value="Mngr_Notif_Scr" style="shape=umlLifeline;perimeter=lifelinePerimeter;whiteSpace=wrap;html=1;container=1;dropTarget=0;collapsible=0;recursiveResize=0;outlineConnect=0;portConstraint=eastwest;newEdgeStyle={&quot;curved&quot;:0,&quot;rounded&quot;:0};size=28;" parent="1" vertex="1">
          <mxGeometry x="440" y="52" width="150" height="598" as="geometry" />
        </mxCell>
        <mxCell id="wRlIKdgkcguiMKA2kObz-9" value="" style="html=1;points=[[0,0,0,0,0],[0,0.99,0,0,0],[1,0.01,0,0,0],[1,0.99,0,0,0]];perimeter=orthogonalPerimeter;outlineConnect=0;targetShapes=umlLifeline;portConstraint=eastwest;newEdgeStyle={&quot;curved&quot;:0,&quot;rounded&quot;:0};" parent="zcN_CrmE4YtSsB2iH1Vm-15" vertex="1">
          <mxGeometry x="70" y="170" width="10" height="60" as="geometry" />
        </mxCell>
        <mxCell id="zcN_CrmE4YtSsB2iH1Vm-16" value="&lt;span style=&quot;text-wrap-mode: nowrap;&quot;&gt;Notif _Create_Scr&lt;/span&gt;" style="shape=umlLifeline;perimeter=lifelinePerimeter;whiteSpace=wrap;html=1;container=1;dropTarget=0;collapsible=0;recursiveResize=0;outlineConnect=0;portConstraint=eastwest;newEdgeStyle={&quot;curved&quot;:0,&quot;rounded&quot;:0};size=28;" parent="1" vertex="1">
          <mxGeometry x="610" y="52" width="140" height="598" as="geometry" />
        </mxCell>
        <mxCell id="wRlIKdgkcguiMKA2kObz-13" value="" style="html=1;points=[[0,0,0,0,0],[0,1,0,0,0],[1,0,0,0,0],[1,1,0,0,0]];perimeter=orthogonalPerimeter;outlineConnect=0;targetShapes=umlLifeline;portConstraint=eastwest;newEdgeStyle={&quot;curved&quot;:0,&quot;rounded&quot;:0};" parent="zcN_CrmE4YtSsB2iH1Vm-16" vertex="1">
          <mxGeometry x="65" y="230" width="10" height="70" as="geometry" />
        </mxCell>
        <mxCell id="zcN_CrmE4YtSsB2iH1Vm-17" value="Tenant_&lt;span style=&quot;color: light-dark(rgb(0, 0, 0), rgb(255, 255, 255)); background-color: transparent;&quot;&gt;Notif_&lt;/span&gt;&lt;span style=&quot;color: light-dark(rgb(0, 0, 0), rgb(255, 255, 255)); background-color: transparent;&quot;&gt;Scr&lt;/span&gt;" style="shape=umlLifeline;perimeter=lifelinePerimeter;whiteSpace=wrap;html=1;container=1;dropTarget=0;collapsible=0;recursiveResize=0;outlineConnect=0;portConstraint=eastwest;newEdgeStyle={&quot;curved&quot;:0,&quot;rounded&quot;:0};size=28;" parent="1" vertex="1">
          <mxGeometry x="770" y="52" width="150" height="598" as="geometry" />
        </mxCell>
        <mxCell id="wRlIKdgkcguiMKA2kObz-32" value="" style="html=1;points=[[0,0.03,0,0,0],[0,0.97,0,0,0],[1,0.03,0,0,0],[1,0.97,0,0,0]];perimeter=orthogonalPerimeter;outlineConnect=0;targetShapes=umlLifeline;portConstraint=eastwest;newEdgeStyle={&quot;curved&quot;:0,&quot;rounded&quot;:0};" parent="zcN_CrmE4YtSsB2iH1Vm-17" vertex="1">
          <mxGeometry x="70" y="500" width="10" height="40" as="geometry" />
        </mxCell>
        <mxCell id="zcN_CrmE4YtSsB2iH1Vm-18" value="Notification" style="shape=umlLifeline;perimeter=lifelinePerimeter;whiteSpace=wrap;html=1;container=1;dropTarget=0;collapsible=0;recursiveResize=0;outlineConnect=0;portConstraint=eastwest;newEdgeStyle={&quot;curved&quot;:0,&quot;rounded&quot;:0};size=28;" parent="1" vertex="1">
          <mxGeometry x="940" y="52" width="100" height="598" as="geometry" />
        </mxCell>
        <mxCell id="wRlIKdgkcguiMKA2kObz-7" value="" style="html=1;points=[[0,0.01,0,0,0],[0,0.99,0,0,0],[1,0.01,0,0,0],[1,0.99,0,0,0]];perimeter=orthogonalPerimeter;outlineConnect=0;targetShapes=umlLifeline;portConstraint=eastwest;newEdgeStyle={&quot;curved&quot;:0,&quot;rounded&quot;:0};" parent="zcN_CrmE4YtSsB2iH1Vm-18" vertex="1">
          <mxGeometry x="45" y="118" width="10" height="22" as="geometry" />
        </mxCell>
        <mxCell id="wRlIKdgkcguiMKA2kObz-20" value="" style="html=1;points=[[0,0.01,0,0,0],[0,0.99,0,0,0],[1,0.01,0,0,0],[1,0.99,0,0,0]];perimeter=orthogonalPerimeter;outlineConnect=0;targetShapes=umlLifeline;portConstraint=eastwest;newEdgeStyle={&quot;curved&quot;:0,&quot;rounded&quot;:0};" parent="zcN_CrmE4YtSsB2iH1Vm-18" vertex="1">
          <mxGeometry x="45" y="330" width="10" height="90" as="geometry" />
        </mxCell>
        <mxCell id="wRlIKdgkcguiMKA2kObz-21" value="AddtoList()" style="html=1;verticalAlign=bottom;endArrow=block;curved=0;rounded=0;" parent="zcN_CrmE4YtSsB2iH1Vm-18" source="wRlIKdgkcguiMKA2kObz-20" target="wRlIKdgkcguiMKA2kObz-20" edge="1">
          <mxGeometry x="0.0638" y="30" width="80" relative="1" as="geometry">
            <mxPoint x="70" y="368" as="sourcePoint" />
            <mxPoint x="60" y="398" as="targetPoint" />
            <Array as="points">
              <mxPoint x="110" y="368" />
              <mxPoint x="110" y="399" />
            </Array>
            <mxPoint as="offset" />
          </mxGeometry>
        </mxCell>
        <mxCell id="wRlIKdgkcguiMKA2kObz-30" value="" style="html=1;points=[[0,0,0,0,0],[0,0.99,0,0,0],[1,0,0,0,0],[1,0.99,0,0,0]];perimeter=orthogonalPerimeter;outlineConnect=0;targetShapes=umlLifeline;portConstraint=eastwest;newEdgeStyle={&quot;curved&quot;:0,&quot;rounded&quot;:0};" parent="zcN_CrmE4YtSsB2iH1Vm-18" vertex="1">
          <mxGeometry x="46" y="458" width="10" height="22" as="geometry" />
        </mxCell>
        <mxCell id="hJfS-ec0GqqAyAs6-pMt-1" value="ManageNotifCase" style="shape=umlLifeline;perimeter=lifelinePerimeter;whiteSpace=wrap;html=1;container=1;dropTarget=0;collapsible=0;recursiveResize=0;outlineConnect=0;portConstraint=eastwest;newEdgeStyle={&quot;curved&quot;:0,&quot;rounded&quot;:0};size=28;" parent="1" vertex="1">
          <mxGeometry x="320" y="52" width="100" height="598" as="geometry" />
        </mxCell>
        <mxCell id="wRlIKdgkcguiMKA2kObz-4" value="" style="html=1;points=[[0,0.01,0,0,0],[0,0.99,0,0,0],[1,0.01,0,0,0],[1,0.99,0,0,0]];perimeter=orthogonalPerimeter;outlineConnect=0;targetShapes=umlLifeline;portConstraint=eastwest;newEdgeStyle={&quot;curved&quot;:0,&quot;rounded&quot;:0};" parent="hJfS-ec0GqqAyAs6-pMt-1" vertex="1">
          <mxGeometry x="45" y="78" width="10" height="92" as="geometry" />
        </mxCell>
        <mxCell id="wRlIKdgkcguiMKA2kObz-16" value="" style="html=1;points=[[0,0.01,0,0,0],[0,0.99,0,0,0],[1,0.01,0,0,0],[1,0.99,0,0,0]];perimeter=orthogonalPerimeter;outlineConnect=0;targetShapes=umlLifeline;portConstraint=eastwest;newEdgeStyle={&quot;curved&quot;:0,&quot;rounded&quot;:0};" parent="hJfS-ec0GqqAyAs6-pMt-1" vertex="1">
          <mxGeometry x="45" y="300" width="10" height="30" as="geometry" />
        </mxCell>
        <mxCell id="wRlIKdgkcguiMKA2kObz-24" value="" style="html=1;points=[[0,0.01,0,0,0],[0,1,0,0,0],[1,0.01,0,0,0],[1,1,0,0,0]];perimeter=orthogonalPerimeter;outlineConnect=0;targetShapes=umlLifeline;portConstraint=eastwest;newEdgeStyle={&quot;curved&quot;:0,&quot;rounded&quot;:0};" parent="hJfS-ec0GqqAyAs6-pMt-1" vertex="1">
          <mxGeometry x="45" y="418" width="10" height="82" as="geometry" />
        </mxCell>
        <mxCell id="wRlIKdgkcguiMKA2kObz-2" value="NotificationButton()" style="html=1;verticalAlign=bottom;endArrow=block;curved=0;rounded=0;" parent="1" target="wRlIKdgkcguiMKA2kObz-1" edge="1">
          <mxGeometry width="80" relative="1" as="geometry">
            <mxPoint x="119.5" y="110" as="sourcePoint" />
            <mxPoint x="200" y="110" as="targetPoint" />
          </mxGeometry>
        </mxCell>
        <mxCell id="wRlIKdgkcguiMKA2kObz-3" value="loadNotifList()" style="html=1;verticalAlign=bottom;endArrow=block;curved=0;rounded=0;entryX=0;entryY=0.01;entryDx=0;entryDy=0;entryPerimeter=0;" parent="1" source="wRlIKdgkcguiMKA2kObz-1" target="wRlIKdgkcguiMKA2kObz-4" edge="1">
          <mxGeometry width="80" relative="1" as="geometry">
            <mxPoint x="260" y="130" as="sourcePoint" />
            <mxPoint x="340" y="130" as="targetPoint" />
          </mxGeometry>
        </mxCell>
        <mxCell id="wRlIKdgkcguiMKA2kObz-6" value="loadList()" style="html=1;verticalAlign=bottom;endArrow=block;curved=0;rounded=0;entryX=0;entryY=0.01;entryDx=0;entryDy=0;entryPerimeter=0;" parent="1" source="wRlIKdgkcguiMKA2kObz-4" target="wRlIKdgkcguiMKA2kObz-7" edge="1">
          <mxGeometry x="-0.8197" y="-1" width="80" relative="1" as="geometry">
            <mxPoint x="390" y="150" as="sourcePoint" />
            <mxPoint x="970" y="170" as="targetPoint" />
            <Array as="points">
              <mxPoint x="650" y="170" />
            </Array>
            <mxPoint as="offset" />
          </mxGeometry>
        </mxCell>
        <mxCell id="wRlIKdgkcguiMKA2kObz-8" value="return results" style="html=1;verticalAlign=bottom;endArrow=open;dashed=1;endSize=8;curved=0;rounded=0;exitX=0;exitY=0.99;exitDx=0;exitDy=0;exitPerimeter=0;" parent="1" source="wRlIKdgkcguiMKA2kObz-7" target="wRlIKdgkcguiMKA2kObz-4" edge="1">
          <mxGeometry x="0.2951" relative="1" as="geometry">
            <mxPoint x="940" y="187" as="sourcePoint" />
            <mxPoint x="860" y="187" as="targetPoint" />
            <mxPoint as="offset" />
          </mxGeometry>
        </mxCell>
        <mxCell id="wRlIKdgkcguiMKA2kObz-10" value="showResults()" style="html=1;verticalAlign=bottom;endArrow=block;curved=0;rounded=0;entryX=0;entryY=0.01;entryDx=0;entryDy=0;entryPerimeter=0;exitX=1;exitY=0.99;exitDx=0;exitDy=0;exitPerimeter=0;" parent="1" source="wRlIKdgkcguiMKA2kObz-4" target="wRlIKdgkcguiMKA2kObz-9" edge="1">
          <mxGeometry width="80" relative="1" as="geometry">
            <mxPoint x="390" y="230" as="sourcePoint" />
            <mxPoint x="470" y="220" as="targetPoint" />
          </mxGeometry>
        </mxCell>
        <mxCell id="wRlIKdgkcguiMKA2kObz-11" value="NewNotifButton()" style="html=1;verticalAlign=bottom;endArrow=block;curved=0;rounded=0;" parent="1" edge="1">
          <mxGeometry x="-0.0751" width="80" relative="1" as="geometry">
            <mxPoint x="119.32352941176475" y="250" as="sourcePoint" />
            <mxPoint x="510" y="250" as="targetPoint" />
            <mxPoint as="offset" />
          </mxGeometry>
        </mxCell>
        <mxCell id="wRlIKdgkcguiMKA2kObz-12" value="dispaly()" style="html=1;verticalAlign=bottom;endArrow=block;curved=0;rounded=0;exitX=1;exitY=0.99;exitDx=0;exitDy=0;exitPerimeter=0;entryX=0;entryY=0;entryDx=0;entryDy=0;entryPerimeter=0;" parent="1" source="wRlIKdgkcguiMKA2kObz-9" target="wRlIKdgkcguiMKA2kObz-13" edge="1">
          <mxGeometry width="80" relative="1" as="geometry">
            <mxPoint x="540" y="280" as="sourcePoint" />
            <mxPoint x="660" y="280" as="targetPoint" />
          </mxGeometry>
        </mxCell>
        <mxCell id="wRlIKdgkcguiMKA2kObz-15" value="createNotif()" style="html=1;verticalAlign=bottom;endArrow=block;curved=0;rounded=0;entryX=1;entryY=0.01;entryDx=0;entryDy=0;entryPerimeter=0;exitX=0;exitY=1;exitDx=0;exitDy=0;exitPerimeter=0;" parent="1" source="wRlIKdgkcguiMKA2kObz-13" target="wRlIKdgkcguiMKA2kObz-16" edge="1">
          <mxGeometry width="80" relative="1" as="geometry">
            <mxPoint x="650" y="311" as="sourcePoint" />
            <mxPoint x="520" y="320.9200000000001" as="targetPoint" />
          </mxGeometry>
        </mxCell>
        <mxCell id="wRlIKdgkcguiMKA2kObz-17" value="createButton()" style="html=1;verticalAlign=bottom;endArrow=block;curved=0;rounded=0;" parent="1" edge="1">
          <mxGeometry x="-0.3497" y="-1" width="80" relative="1" as="geometry">
            <mxPoint x="118.68181818181802" y="320" as="sourcePoint" />
            <mxPoint x="675" y="320" as="targetPoint" />
            <mxPoint as="offset" />
          </mxGeometry>
        </mxCell>
        <mxCell id="wRlIKdgkcguiMKA2kObz-19" value="NotifCreate()" style="html=1;verticalAlign=bottom;endArrow=block;curved=0;rounded=0;exitX=1;exitY=0.99;exitDx=0;exitDy=0;exitPerimeter=0;entryX=0;entryY=0.01;entryDx=0;entryDy=0;entryPerimeter=0;" parent="1" source="wRlIKdgkcguiMKA2kObz-16" target="wRlIKdgkcguiMKA2kObz-20" edge="1">
          <mxGeometry x="0.2295" width="80" relative="1" as="geometry">
            <mxPoint x="390" y="390" as="sourcePoint" />
            <mxPoint x="470" y="390" as="targetPoint" />
            <mxPoint as="offset" />
          </mxGeometry>
        </mxCell>
        <mxCell id="wRlIKdgkcguiMKA2kObz-25" value="return ......." style="html=1;verticalAlign=bottom;endArrow=open;dashed=1;endSize=8;curved=0;rounded=0;exitX=0;exitY=0.99;exitDx=0;exitDy=0;exitPerimeter=0;entryX=1;entryY=0.01;entryDx=0;entryDy=0;entryPerimeter=0;" parent="1" source="wRlIKdgkcguiMKA2kObz-20" target="wRlIKdgkcguiMKA2kObz-24" edge="1">
          <mxGeometry x="-0.2623" y="-1" relative="1" as="geometry">
            <mxPoint x="970" y="470" as="sourcePoint" />
            <mxPoint x="430" y="470" as="targetPoint" />
            <mxPoint as="offset" />
          </mxGeometry>
        </mxCell>
        <mxCell id="wRlIKdgkcguiMKA2kObz-26" value="loadList()" style="html=1;verticalAlign=bottom;endArrow=block;curved=0;rounded=0;entryX=0;entryY=0;entryDx=0;entryDy=0;entryPerimeter=0;" parent="1" source="wRlIKdgkcguiMKA2kObz-24" target="wRlIKdgkcguiMKA2kObz-30" edge="1">
          <mxGeometry x="-0.2635" width="80" relative="1" as="geometry">
            <mxPoint x="390" y="500" as="sourcePoint" />
            <mxPoint x="470" y="500" as="targetPoint" />
            <mxPoint as="offset" />
          </mxGeometry>
        </mxCell>
        <mxCell id="wRlIKdgkcguiMKA2kObz-31" value="return results" style="html=1;verticalAlign=bottom;endArrow=open;dashed=1;endSize=8;curved=0;rounded=0;exitX=0;exitY=0.99;exitDx=0;exitDy=0;exitPerimeter=0;" parent="1" source="wRlIKdgkcguiMKA2kObz-30" target="wRlIKdgkcguiMKA2kObz-24" edge="1">
          <mxGeometry x="0.2962" relative="1" as="geometry">
            <mxPoint x="940" y="530" as="sourcePoint" />
            <mxPoint x="860" y="530" as="targetPoint" />
            <mxPoint as="offset" />
          </mxGeometry>
        </mxCell>
        <mxCell id="wRlIKdgkcguiMKA2kObz-33" value="showResults()" style="html=1;verticalAlign=bottom;endArrow=block;curved=0;rounded=0;exitX=1;exitY=1;exitDx=0;exitDy=0;exitPerimeter=0;entryX=0;entryY=0.03;entryDx=0;entryDy=0;entryPerimeter=0;" parent="1" source="wRlIKdgkcguiMKA2kObz-24" target="wRlIKdgkcguiMKA2kObz-32" edge="1">
          <mxGeometry width="80" relative="1" as="geometry">
            <mxPoint x="390" y="550" as="sourcePoint" />
            <mxPoint x="760" y="560" as="targetPoint" />
          </mxGeometry>
        </mxCell>
      </root>
    </mxGraphModel>
  </diagram>
</mxfile>
